G04 #@! TF.FileFunction,Copper,L1,Top,Signal*
%FSLAX46Y46*%
G04 Gerber Fmt 4.6, Leading zero omitted, Abs format (unit mm)*
G04 Created by KiCad (PCBNEW 4.0.7) date Friday, 10 August 2018 'AMt' 11:40:38 AM*
%MOMM*%
%LPD*%
G01*
G04 APERTURE LIST*
%ADD10C,0.100000*%
%ADD11R,0.600000X1.800000*%
%ADD12R,1.000000X2.800000*%
%ADD13R,1.500000X1.300000*%
%ADD14C,0.600000*%
%ADD15C,0.250000*%
G04 APERTURE END LIST*
D10*
D11*
X166390000Y-122860000D03*
X167640000Y-122860000D03*
X168890000Y-122860000D03*
D12*
X170640000Y-126060000D03*
X164640000Y-126060000D03*
D13*
X168990000Y-118110000D03*
X166290000Y-118110000D03*
X166290000Y-115570000D03*
X168990000Y-115570000D03*
D14*
X170180000Y-123190000D03*
X165100000Y-114300000D03*
X170180000Y-114300000D03*
X166370000Y-116840000D03*
X170180000Y-120650000D03*
X170180000Y-115570000D03*
D15*
X169850000Y-122860000D02*
X168890000Y-122860000D01*
X170180000Y-123190000D02*
X169850000Y-122860000D01*
X168890000Y-123170000D02*
X168890000Y-122860000D01*
X168890000Y-123170000D02*
X168890000Y-122860000D01*
X166290000Y-118110000D02*
X166290000Y-118030000D01*
X166290000Y-118030000D02*
X165100000Y-116840000D01*
X165100000Y-116840000D02*
X165100000Y-114300000D01*
X166290000Y-115570000D02*
X166370000Y-115570000D01*
X166370000Y-115570000D02*
X167640000Y-114300000D01*
X167640000Y-114300000D02*
X170180000Y-114300000D01*
X168990000Y-118110000D02*
X168990000Y-116920000D01*
X168910000Y-116840000D02*
X166370000Y-116840000D01*
X168990000Y-116920000D02*
X168910000Y-116840000D01*
X166390000Y-122860000D02*
X166390000Y-120710000D01*
X166390000Y-120710000D02*
X168990000Y-118110000D01*
X167640000Y-122860000D02*
X167640000Y-121920000D01*
X168910000Y-120650000D02*
X170180000Y-120650000D01*
X167640000Y-121920000D02*
X168910000Y-120650000D01*
X168990000Y-115570000D02*
X170180000Y-115570000D01*
M02*
