G04 #@! TF.FileFunction,Legend,Top*
%FSLAX46Y46*%
G04 Gerber Fmt 4.6, Leading zero omitted, Abs format (unit mm)*
G04 Created by KiCad (PCBNEW 4.0.7) date Monday, 18 February 2019 'AMt' 09:16:41 AM*
%MOMM*%
%LPD*%
G01*
G04 APERTURE LIST*
%ADD10C,0.100000*%
%ADD11C,0.120000*%
G04 APERTURE END LIST*
D10*
D11*
X165638400Y-124871600D02*
X169438400Y-124871600D01*
X163938400Y-121671600D02*
X163938400Y-120571600D01*
X163938400Y-120571600D02*
X165488400Y-120571600D01*
X165488400Y-120571600D02*
X165488400Y-121071600D01*
X165488400Y-121071600D02*
X164438400Y-121071600D01*
X164438400Y-121071600D02*
X164438400Y-121671600D01*
X164438400Y-121671600D02*
X163938400Y-121671600D01*
X171138400Y-121671600D02*
X171138400Y-120571600D01*
X171138400Y-120571600D02*
X169588400Y-120571600D01*
X169588400Y-120571600D02*
X169588400Y-121071600D01*
X169588400Y-121071600D02*
X170638400Y-121071600D01*
X170638400Y-121071600D02*
X170638400Y-121671600D01*
X170638400Y-121671600D02*
X171138400Y-121671600D01*
X165288400Y-119871600D02*
X164688400Y-119571600D01*
X164688400Y-119571600D02*
X164688400Y-120171600D01*
X164688400Y-120171600D02*
X165288400Y-119871600D01*
X163440000Y-116240000D02*
X163440000Y-117440000D01*
X161680000Y-117440000D02*
X161680000Y-116240000D01*
X171840000Y-117440000D02*
X171840000Y-116240000D01*
X173600000Y-116240000D02*
X173600000Y-117440000D01*
D10*
X167371734Y-123017790D02*
X167371734Y-123374933D01*
X167347924Y-123446362D01*
X167300305Y-123493981D01*
X167228877Y-123517790D01*
X167181258Y-123517790D01*
X167871733Y-123517790D02*
X167586019Y-123517790D01*
X167728876Y-123517790D02*
X167728876Y-123017790D01*
X167681257Y-123089219D01*
X167633638Y-123136838D01*
X167586019Y-123160648D01*
X162786190Y-119717333D02*
X162548095Y-119884000D01*
X162786190Y-120003047D02*
X162286190Y-120003047D01*
X162286190Y-119812571D01*
X162310000Y-119764952D01*
X162333810Y-119741143D01*
X162381429Y-119717333D01*
X162452857Y-119717333D01*
X162500476Y-119741143D01*
X162524286Y-119764952D01*
X162548095Y-119812571D01*
X162548095Y-120003047D01*
X162786190Y-119241143D02*
X162786190Y-119526857D01*
X162786190Y-119384000D02*
X162286190Y-119384000D01*
X162357619Y-119431619D01*
X162405238Y-119479238D01*
X162429048Y-119526857D01*
X173098590Y-119971333D02*
X172860495Y-120138000D01*
X173098590Y-120257047D02*
X172598590Y-120257047D01*
X172598590Y-120066571D01*
X172622400Y-120018952D01*
X172646210Y-119995143D01*
X172693829Y-119971333D01*
X172765257Y-119971333D01*
X172812876Y-119995143D01*
X172836686Y-120018952D01*
X172860495Y-120066571D01*
X172860495Y-120257047D01*
X172646210Y-119780857D02*
X172622400Y-119757047D01*
X172598590Y-119709428D01*
X172598590Y-119590381D01*
X172622400Y-119542762D01*
X172646210Y-119518952D01*
X172693829Y-119495143D01*
X172741448Y-119495143D01*
X172812876Y-119518952D01*
X173098590Y-119804666D01*
X173098590Y-119495143D01*
M02*
