G04 #@! TF.FileFunction,Copper,L2,Bot,Signal*
%FSLAX46Y46*%
G04 Gerber Fmt 4.6, Leading zero omitted, Abs format (unit mm)*
G04 Created by KiCad (PCBNEW 4.0.7) date Monday, 18 February 2019 'AMt' 09:16:41 AM*
%MOMM*%
%LPD*%
G01*
G04 APERTURE LIST*
%ADD10C,0.100000*%
%ADD11R,1.500000X1.300000*%
%ADD12R,1.550000X0.600000*%
%ADD13C,0.600000*%
%ADD14C,0.250000*%
G04 APERTURE END LIST*
D10*
D11*
X166450000Y-113030000D03*
X163750000Y-113030000D03*
X168830000Y-113030000D03*
X171530000Y-113030000D03*
D12*
X170340000Y-116205000D03*
X170340000Y-117475000D03*
X170340000Y-118745000D03*
X170340000Y-120015000D03*
X164940000Y-120015000D03*
X164940000Y-118745000D03*
X164940000Y-117475000D03*
X164940000Y-116205000D03*
D13*
X172059600Y-120396000D03*
X168808400Y-114655600D03*
X162204400Y-113741200D03*
X173126400Y-113639600D03*
X166624000Y-117144800D03*
X167538400Y-118770400D03*
X171551600Y-118008400D03*
D14*
X171678600Y-120015000D02*
X170340000Y-120015000D01*
X172059600Y-120396000D02*
X171678600Y-120015000D01*
X168830000Y-114634000D02*
X168830000Y-113030000D01*
X168808400Y-114655600D02*
X168830000Y-114634000D01*
X166450000Y-113030000D02*
X166450000Y-113110000D01*
X168830000Y-113030000D02*
X166450000Y-113030000D01*
X163750000Y-113030000D02*
X162915600Y-113030000D01*
X162915600Y-113030000D02*
X162204400Y-113741200D01*
X163830000Y-113030000D02*
X163750000Y-113030000D01*
X171530000Y-113030000D02*
X172516800Y-113030000D01*
X172516800Y-113030000D02*
X173126400Y-113639600D01*
X171450000Y-113030000D02*
X171530000Y-113030000D01*
X166624000Y-117144800D02*
X165684200Y-116205000D01*
X165684200Y-116205000D02*
X164940000Y-116205000D01*
X167563800Y-118745000D02*
X170340000Y-118745000D01*
X167538400Y-118770400D02*
X167563800Y-118745000D01*
X170340000Y-116205000D02*
X170340000Y-117475000D01*
X170340000Y-117475000D02*
X170873400Y-118008400D01*
X170873400Y-118008400D02*
X171551600Y-118008400D01*
M02*
