G04 #@! TF.FileFunction,Soldermask,Bot*
%FSLAX46Y46*%
G04 Gerber Fmt 4.6, Leading zero omitted, Abs format (unit mm)*
G04 Created by KiCad (PCBNEW 4.0.7) date Monday, 18 February 2019 'AMt' 09:16:41 AM*
%MOMM*%
%LPD*%
G01*
G04 APERTURE LIST*
%ADD10C,0.100000*%
G04 APERTURE END LIST*
D10*
G36*
X171315000Y-120515000D02*
X169365000Y-120515000D01*
X169365000Y-119515000D01*
X171315000Y-119515000D01*
X171315000Y-120515000D01*
X171315000Y-120515000D01*
G37*
G36*
X165915000Y-120515000D02*
X163965000Y-120515000D01*
X163965000Y-119515000D01*
X165915000Y-119515000D01*
X165915000Y-120515000D01*
X165915000Y-120515000D01*
G37*
G36*
X165915000Y-119245000D02*
X163965000Y-119245000D01*
X163965000Y-118245000D01*
X165915000Y-118245000D01*
X165915000Y-119245000D01*
X165915000Y-119245000D01*
G37*
G36*
X171315000Y-119245000D02*
X169365000Y-119245000D01*
X169365000Y-118245000D01*
X171315000Y-118245000D01*
X171315000Y-119245000D01*
X171315000Y-119245000D01*
G37*
G36*
X171315000Y-117975000D02*
X169365000Y-117975000D01*
X169365000Y-116975000D01*
X171315000Y-116975000D01*
X171315000Y-117975000D01*
X171315000Y-117975000D01*
G37*
G36*
X165915000Y-117975000D02*
X163965000Y-117975000D01*
X163965000Y-116975000D01*
X165915000Y-116975000D01*
X165915000Y-117975000D01*
X165915000Y-117975000D01*
G37*
G36*
X171315000Y-116705000D02*
X169365000Y-116705000D01*
X169365000Y-115705000D01*
X171315000Y-115705000D01*
X171315000Y-116705000D01*
X171315000Y-116705000D01*
G37*
G36*
X165915000Y-116705000D02*
X163965000Y-116705000D01*
X163965000Y-115705000D01*
X165915000Y-115705000D01*
X165915000Y-116705000D01*
X165915000Y-116705000D01*
G37*
G36*
X167400000Y-113880000D02*
X165500000Y-113880000D01*
X165500000Y-112180000D01*
X167400000Y-112180000D01*
X167400000Y-113880000D01*
X167400000Y-113880000D01*
G37*
G36*
X164700000Y-113880000D02*
X162800000Y-113880000D01*
X162800000Y-112180000D01*
X164700000Y-112180000D01*
X164700000Y-113880000D01*
X164700000Y-113880000D01*
G37*
G36*
X169780000Y-113880000D02*
X167880000Y-113880000D01*
X167880000Y-112180000D01*
X169780000Y-112180000D01*
X169780000Y-113880000D01*
X169780000Y-113880000D01*
G37*
G36*
X172480000Y-113880000D02*
X170580000Y-113880000D01*
X170580000Y-112180000D01*
X172480000Y-112180000D01*
X172480000Y-113880000D01*
X172480000Y-113880000D01*
G37*
G36*
X167792301Y-109040960D02*
X168070851Y-109098138D01*
X168332995Y-109208334D01*
X168568743Y-109367348D01*
X168769110Y-109569118D01*
X168926474Y-109805970D01*
X169034836Y-110068876D01*
X169089897Y-110346952D01*
X169089897Y-110346984D01*
X169090062Y-110347820D01*
X169085527Y-110672613D01*
X169085337Y-110673448D01*
X169085337Y-110673472D01*
X169022532Y-110949911D01*
X168906873Y-111209684D01*
X168742958Y-111442047D01*
X168537031Y-111638149D01*
X168296941Y-111790515D01*
X168031820Y-111893349D01*
X167813193Y-111931899D01*
X167779757Y-111942820D01*
X167774038Y-111946716D01*
X167757618Y-111942850D01*
X167527618Y-111938031D01*
X167492698Y-111942250D01*
X167482015Y-111946799D01*
X167449944Y-111932916D01*
X167189755Y-111875710D01*
X166929179Y-111761867D01*
X166695672Y-111599576D01*
X166498143Y-111395028D01*
X166344102Y-111156003D01*
X166239420Y-110891607D01*
X166188088Y-110611923D01*
X166192059Y-110327584D01*
X166251179Y-110049444D01*
X166363203Y-109788074D01*
X166523857Y-109553445D01*
X166727024Y-109354488D01*
X166964968Y-109198783D01*
X167228622Y-109092259D01*
X167507947Y-109038975D01*
X167792301Y-109040960D01*
X167792301Y-109040960D01*
G37*
M02*
