G04 #@! TF.FileFunction,Soldermask,Top*
%FSLAX46Y46*%
G04 Gerber Fmt 4.6, Leading zero omitted, Abs format (unit mm)*
G04 Created by KiCad (PCBNEW 4.0.7) date Monday, 18 February 2019 'AMt' 09:16:41 AM*
%MOMM*%
%LPD*%
G01*
G04 APERTURE LIST*
%ADD10C,0.100000*%
G04 APERTURE END LIST*
D10*
G36*
X171238400Y-125221600D02*
X169838400Y-125221600D01*
X169838400Y-122021600D01*
X171238400Y-122021600D01*
X171238400Y-125221600D01*
X171238400Y-125221600D01*
G37*
G36*
X165238400Y-125221600D02*
X163838400Y-125221600D01*
X163838400Y-122021600D01*
X165238400Y-122021600D01*
X165238400Y-125221600D01*
X165238400Y-125221600D01*
G37*
G36*
X169288400Y-121521600D02*
X165788400Y-121521600D01*
X165788400Y-119321600D01*
X169288400Y-119321600D01*
X169288400Y-121521600D01*
X169288400Y-121521600D01*
G37*
G36*
X163410000Y-119140000D02*
X161710000Y-119140000D01*
X161710000Y-117240000D01*
X163410000Y-117240000D01*
X163410000Y-119140000D01*
X163410000Y-119140000D01*
G37*
G36*
X173570000Y-119140000D02*
X171870000Y-119140000D01*
X171870000Y-117240000D01*
X173570000Y-117240000D01*
X173570000Y-119140000D01*
X173570000Y-119140000D01*
G37*
G36*
X163410000Y-116440000D02*
X161710000Y-116440000D01*
X161710000Y-114540000D01*
X163410000Y-114540000D01*
X163410000Y-116440000D01*
X163410000Y-116440000D01*
G37*
G36*
X173570000Y-116440000D02*
X171870000Y-116440000D01*
X171870000Y-114540000D01*
X173570000Y-114540000D01*
X173570000Y-116440000D01*
X173570000Y-116440000D01*
G37*
G36*
X167792301Y-109040960D02*
X168070851Y-109098138D01*
X168332995Y-109208334D01*
X168568743Y-109367348D01*
X168769110Y-109569118D01*
X168926474Y-109805970D01*
X169034836Y-110068876D01*
X169089897Y-110346952D01*
X169089897Y-110346984D01*
X169090062Y-110347820D01*
X169085527Y-110672613D01*
X169085337Y-110673448D01*
X169085337Y-110673472D01*
X169022532Y-110949911D01*
X168906873Y-111209684D01*
X168742958Y-111442047D01*
X168537031Y-111638149D01*
X168296941Y-111790515D01*
X168031820Y-111893349D01*
X167751783Y-111942727D01*
X167467480Y-111936772D01*
X167189755Y-111875710D01*
X166929179Y-111761867D01*
X166695672Y-111599576D01*
X166498143Y-111395028D01*
X166344102Y-111156003D01*
X166239420Y-110891607D01*
X166188088Y-110611923D01*
X166192059Y-110327584D01*
X166251179Y-110049444D01*
X166363203Y-109788074D01*
X166523857Y-109553445D01*
X166727024Y-109354488D01*
X166964968Y-109198783D01*
X167228622Y-109092259D01*
X167507947Y-109038975D01*
X167792301Y-109040960D01*
X167792301Y-109040960D01*
G37*
M02*
