G04 #@! TF.FileFunction,Legend,Bot*
%FSLAX46Y46*%
G04 Gerber Fmt 4.6, Leading zero omitted, Abs format (unit mm)*
G04 Created by KiCad (PCBNEW 4.0.7) date Monday, 18 February 2019 'AMt' 09:16:41 AM*
%MOMM*%
%LPD*%
G01*
G04 APERTURE LIST*
%ADD10C,0.100000*%
%ADD11C,0.125000*%
%ADD12C,0.120000*%
%ADD13C,0.150000*%
G04 APERTURE END LIST*
D10*
D11*
X172981952Y-122351690D02*
X172981952Y-122756452D01*
X172958143Y-122804071D01*
X172934333Y-122827881D01*
X172886714Y-122851690D01*
X172791476Y-122851690D01*
X172743857Y-122827881D01*
X172720048Y-122804071D01*
X172696238Y-122756452D01*
X172696238Y-122351690D01*
X172458142Y-122851690D02*
X172458142Y-122351690D01*
X172267666Y-122351690D01*
X172220047Y-122375500D01*
X172196238Y-122399310D01*
X172172428Y-122446929D01*
X172172428Y-122518357D01*
X172196238Y-122565976D01*
X172220047Y-122589786D01*
X172267666Y-122613595D01*
X172458142Y-122613595D01*
X171291476Y-122804071D02*
X171315286Y-122827881D01*
X171386714Y-122851690D01*
X171434333Y-122851690D01*
X171505762Y-122827881D01*
X171553381Y-122780262D01*
X171577190Y-122732643D01*
X171601000Y-122637405D01*
X171601000Y-122565976D01*
X171577190Y-122470738D01*
X171553381Y-122423119D01*
X171505762Y-122375500D01*
X171434333Y-122351690D01*
X171386714Y-122351690D01*
X171315286Y-122375500D01*
X171291476Y-122399310D01*
X170981952Y-122351690D02*
X170886714Y-122351690D01*
X170839095Y-122375500D01*
X170791476Y-122423119D01*
X170767667Y-122518357D01*
X170767667Y-122685024D01*
X170791476Y-122780262D01*
X170839095Y-122827881D01*
X170886714Y-122851690D01*
X170981952Y-122851690D01*
X171029571Y-122827881D01*
X171077190Y-122780262D01*
X171101000Y-122685024D01*
X171101000Y-122518357D01*
X171077190Y-122423119D01*
X171029571Y-122375500D01*
X170981952Y-122351690D01*
X170267666Y-122851690D02*
X170434333Y-122613595D01*
X170553380Y-122851690D02*
X170553380Y-122351690D01*
X170362904Y-122351690D01*
X170315285Y-122375500D01*
X170291476Y-122399310D01*
X170267666Y-122446929D01*
X170267666Y-122518357D01*
X170291476Y-122565976D01*
X170315285Y-122589786D01*
X170362904Y-122613595D01*
X170553380Y-122613595D01*
X170053380Y-122589786D02*
X169886714Y-122589786D01*
X169815285Y-122851690D02*
X170053380Y-122851690D01*
X170053380Y-122351690D01*
X169815285Y-122351690D01*
X168981952Y-122851690D02*
X169220047Y-122851690D01*
X169220047Y-122351690D01*
X168815285Y-122589786D02*
X168648619Y-122589786D01*
X168577190Y-122851690D02*
X168815285Y-122851690D01*
X168815285Y-122351690D01*
X168577190Y-122351690D01*
X168362904Y-122851690D02*
X168362904Y-122351690D01*
X168243857Y-122351690D01*
X168172428Y-122375500D01*
X168124809Y-122423119D01*
X168101000Y-122470738D01*
X168077190Y-122565976D01*
X168077190Y-122637405D01*
X168101000Y-122732643D01*
X168124809Y-122780262D01*
X168172428Y-122827881D01*
X168243857Y-122851690D01*
X168362904Y-122851690D01*
X167362905Y-123018357D02*
X167362905Y-122304071D01*
X166624810Y-122851690D02*
X166624810Y-122351690D01*
X166458144Y-122708833D01*
X166291477Y-122351690D01*
X166291477Y-122851690D01*
X165839096Y-122851690D02*
X165839096Y-122589786D01*
X165862905Y-122542167D01*
X165910524Y-122518357D01*
X166005762Y-122518357D01*
X166053381Y-122542167D01*
X165839096Y-122827881D02*
X165886715Y-122851690D01*
X166005762Y-122851690D01*
X166053381Y-122827881D01*
X166077191Y-122780262D01*
X166077191Y-122732643D01*
X166053381Y-122685024D01*
X166005762Y-122661214D01*
X165886715Y-122661214D01*
X165839096Y-122637405D01*
X165386715Y-122851690D02*
X165386715Y-122351690D01*
X165386715Y-122827881D02*
X165434334Y-122851690D01*
X165529572Y-122851690D01*
X165577191Y-122827881D01*
X165601000Y-122804071D01*
X165624810Y-122756452D01*
X165624810Y-122613595D01*
X165601000Y-122565976D01*
X165577191Y-122542167D01*
X165529572Y-122518357D01*
X165434334Y-122518357D01*
X165386715Y-122542167D01*
X164958143Y-122827881D02*
X165005762Y-122851690D01*
X165101000Y-122851690D01*
X165148619Y-122827881D01*
X165172429Y-122780262D01*
X165172429Y-122589786D01*
X165148619Y-122542167D01*
X165101000Y-122518357D01*
X165005762Y-122518357D01*
X164958143Y-122542167D01*
X164934334Y-122589786D01*
X164934334Y-122637405D01*
X165172429Y-122685024D01*
X164172430Y-122589786D02*
X164101001Y-122613595D01*
X164077192Y-122637405D01*
X164053382Y-122685024D01*
X164053382Y-122756452D01*
X164077192Y-122804071D01*
X164101001Y-122827881D01*
X164148620Y-122851690D01*
X164339096Y-122851690D01*
X164339096Y-122351690D01*
X164172430Y-122351690D01*
X164124811Y-122375500D01*
X164101001Y-122399310D01*
X164077192Y-122446929D01*
X164077192Y-122494548D01*
X164101001Y-122542167D01*
X164124811Y-122565976D01*
X164172430Y-122589786D01*
X164339096Y-122589786D01*
X163886715Y-122518357D02*
X163767668Y-122851690D01*
X163648620Y-122518357D02*
X163767668Y-122851690D01*
X163815287Y-122970738D01*
X163839096Y-122994548D01*
X163886715Y-123018357D01*
X172815286Y-123464786D02*
X172743857Y-123488595D01*
X172720048Y-123512405D01*
X172696238Y-123560024D01*
X172696238Y-123631452D01*
X172720048Y-123679071D01*
X172743857Y-123702881D01*
X172791476Y-123726690D01*
X172981952Y-123726690D01*
X172981952Y-123226690D01*
X172815286Y-123226690D01*
X172767667Y-123250500D01*
X172743857Y-123274310D01*
X172720048Y-123321929D01*
X172720048Y-123369548D01*
X172743857Y-123417167D01*
X172767667Y-123440976D01*
X172815286Y-123464786D01*
X172981952Y-123464786D01*
X172386714Y-123226690D02*
X172291476Y-123226690D01*
X172243857Y-123250500D01*
X172196238Y-123298119D01*
X172172429Y-123393357D01*
X172172429Y-123560024D01*
X172196238Y-123655262D01*
X172243857Y-123702881D01*
X172291476Y-123726690D01*
X172386714Y-123726690D01*
X172434333Y-123702881D01*
X172481952Y-123655262D01*
X172505762Y-123560024D01*
X172505762Y-123393357D01*
X172481952Y-123298119D01*
X172434333Y-123250500D01*
X172386714Y-123226690D01*
X171981952Y-123583833D02*
X171743857Y-123583833D01*
X172029571Y-123726690D02*
X171862904Y-123226690D01*
X171696238Y-123726690D01*
X171243857Y-123726690D02*
X171410524Y-123488595D01*
X171529571Y-123726690D02*
X171529571Y-123226690D01*
X171339095Y-123226690D01*
X171291476Y-123250500D01*
X171267667Y-123274310D01*
X171243857Y-123321929D01*
X171243857Y-123393357D01*
X171267667Y-123440976D01*
X171291476Y-123464786D01*
X171339095Y-123488595D01*
X171529571Y-123488595D01*
X171029571Y-123726690D02*
X171029571Y-123226690D01*
X170910524Y-123226690D01*
X170839095Y-123250500D01*
X170791476Y-123298119D01*
X170767667Y-123345738D01*
X170743857Y-123440976D01*
X170743857Y-123512405D01*
X170767667Y-123607643D01*
X170791476Y-123655262D01*
X170839095Y-123702881D01*
X170910524Y-123726690D01*
X171029571Y-123726690D01*
X167362908Y-123893357D02*
X167362908Y-123179071D01*
X167029575Y-123583833D02*
X166791480Y-123583833D01*
X167077194Y-123726690D02*
X166910527Y-123226690D01*
X166743861Y-123726690D01*
X166577194Y-123393357D02*
X166577194Y-123726690D01*
X166577194Y-123440976D02*
X166553385Y-123417167D01*
X166505766Y-123393357D01*
X166434337Y-123393357D01*
X166386718Y-123417167D01*
X166362909Y-123464786D01*
X166362909Y-123726690D01*
X166196242Y-123393357D02*
X166005766Y-123393357D01*
X166124813Y-123226690D02*
X166124813Y-123655262D01*
X166101004Y-123702881D01*
X166053385Y-123726690D01*
X166005766Y-123726690D01*
X165839099Y-123726690D02*
X165839099Y-123226690D01*
X165624814Y-123726690D02*
X165624814Y-123464786D01*
X165648623Y-123417167D01*
X165696242Y-123393357D01*
X165767671Y-123393357D01*
X165815290Y-123417167D01*
X165839099Y-123440976D01*
X165315290Y-123726690D02*
X165362909Y-123702881D01*
X165386718Y-123679071D01*
X165410528Y-123631452D01*
X165410528Y-123488595D01*
X165386718Y-123440976D01*
X165362909Y-123417167D01*
X165315290Y-123393357D01*
X165243861Y-123393357D01*
X165196242Y-123417167D01*
X165172433Y-123440976D01*
X165148623Y-123488595D01*
X165148623Y-123631452D01*
X165172433Y-123679071D01*
X165196242Y-123702881D01*
X165243861Y-123726690D01*
X165315290Y-123726690D01*
X164934337Y-123393357D02*
X164934337Y-123726690D01*
X164934337Y-123440976D02*
X164910528Y-123417167D01*
X164862909Y-123393357D01*
X164791480Y-123393357D01*
X164743861Y-123417167D01*
X164720052Y-123464786D01*
X164720052Y-123726690D01*
X164529575Y-123393357D02*
X164410528Y-123726690D01*
X164291480Y-123393357D02*
X164410528Y-123726690D01*
X164458147Y-123845738D01*
X164481956Y-123869548D01*
X164529575Y-123893357D01*
X163553386Y-123464786D02*
X163720052Y-123464786D01*
X163720052Y-123726690D02*
X163720052Y-123226690D01*
X163481957Y-123226690D01*
X163101005Y-123702881D02*
X163148624Y-123726690D01*
X163243862Y-123726690D01*
X163291481Y-123702881D01*
X163315291Y-123655262D01*
X163315291Y-123464786D01*
X163291481Y-123417167D01*
X163243862Y-123393357D01*
X163148624Y-123393357D01*
X163101005Y-123417167D01*
X163077196Y-123464786D01*
X163077196Y-123512405D01*
X163315291Y-123560024D01*
X162862910Y-123726690D02*
X162862910Y-123393357D01*
X162862910Y-123226690D02*
X162886720Y-123250500D01*
X162862910Y-123274310D01*
X162839101Y-123250500D01*
X162862910Y-123226690D01*
X162862910Y-123274310D01*
X162672434Y-123393357D02*
X162410530Y-123393357D01*
X162672434Y-123726690D01*
X162410530Y-123726690D01*
X162220053Y-123726690D02*
X162220053Y-123393357D01*
X162220053Y-123226690D02*
X162243863Y-123250500D01*
X162220053Y-123274310D01*
X162196244Y-123250500D01*
X162220053Y-123226690D01*
X162220053Y-123274310D01*
D12*
X164100000Y-113780000D02*
X167300000Y-113780000D01*
X167300000Y-112280000D02*
X164100000Y-112280000D01*
X167300000Y-112280000D02*
X167300000Y-113780000D01*
X171180000Y-112280000D02*
X167980000Y-112280000D01*
X167980000Y-113780000D02*
X171180000Y-113780000D01*
X167980000Y-113780000D02*
X167980000Y-112280000D01*
D13*
X169715000Y-115535000D02*
X169715000Y-115585000D01*
X165565000Y-115535000D02*
X165565000Y-115680000D01*
X165565000Y-120685000D02*
X165565000Y-120540000D01*
X169715000Y-120685000D02*
X169715000Y-120540000D01*
X169715000Y-115535000D02*
X165565000Y-115535000D01*
X169715000Y-120685000D02*
X165565000Y-120685000D01*
X169715000Y-115585000D02*
X171115000Y-115585000D01*
D10*
X165469047Y-114729390D02*
X165469047Y-114229390D01*
X165350000Y-114229390D01*
X165278571Y-114253200D01*
X165230952Y-114300819D01*
X165207143Y-114348438D01*
X165183333Y-114443676D01*
X165183333Y-114515105D01*
X165207143Y-114610343D01*
X165230952Y-114657962D01*
X165278571Y-114705581D01*
X165350000Y-114729390D01*
X165469047Y-114729390D01*
X164707143Y-114729390D02*
X164992857Y-114729390D01*
X164850000Y-114729390D02*
X164850000Y-114229390D01*
X164897619Y-114300819D01*
X164945238Y-114348438D01*
X164992857Y-114372248D01*
X170549047Y-114678590D02*
X170549047Y-114178590D01*
X170430000Y-114178590D01*
X170358571Y-114202400D01*
X170310952Y-114250019D01*
X170287143Y-114297638D01*
X170263333Y-114392876D01*
X170263333Y-114464305D01*
X170287143Y-114559543D01*
X170310952Y-114607162D01*
X170358571Y-114654781D01*
X170430000Y-114678590D01*
X170549047Y-114678590D01*
X170072857Y-114226210D02*
X170049047Y-114202400D01*
X170001428Y-114178590D01*
X169882381Y-114178590D01*
X169834762Y-114202400D01*
X169810952Y-114226210D01*
X169787143Y-114273829D01*
X169787143Y-114321448D01*
X169810952Y-114392876D01*
X170096666Y-114678590D01*
X169787143Y-114678590D01*
X168020952Y-114336190D02*
X168020952Y-114740952D01*
X167997143Y-114788571D01*
X167973333Y-114812381D01*
X167925714Y-114836190D01*
X167830476Y-114836190D01*
X167782857Y-114812381D01*
X167759048Y-114788571D01*
X167735238Y-114740952D01*
X167735238Y-114336190D01*
X167235238Y-114836190D02*
X167520952Y-114836190D01*
X167378095Y-114836190D02*
X167378095Y-114336190D01*
X167425714Y-114407619D01*
X167473333Y-114455238D01*
X167520952Y-114479048D01*
D13*
X168092381Y-116419524D02*
X168092381Y-115943333D01*
X167092381Y-115943333D01*
X168092381Y-116752857D02*
X167092381Y-116752857D01*
X167806667Y-117086191D01*
X167092381Y-117419524D01*
X168092381Y-117419524D01*
X167092381Y-117800476D02*
X167092381Y-118419524D01*
X167473333Y-118086190D01*
X167473333Y-118229048D01*
X167520952Y-118324286D01*
X167568571Y-118371905D01*
X167663810Y-118419524D01*
X167901905Y-118419524D01*
X167997143Y-118371905D01*
X168044762Y-118324286D01*
X168092381Y-118229048D01*
X168092381Y-117943333D01*
X168044762Y-117848095D01*
X167997143Y-117800476D01*
X167092381Y-119324286D02*
X167092381Y-118848095D01*
X167568571Y-118800476D01*
X167520952Y-118848095D01*
X167473333Y-118943333D01*
X167473333Y-119181429D01*
X167520952Y-119276667D01*
X167568571Y-119324286D01*
X167663810Y-119371905D01*
X167901905Y-119371905D01*
X167997143Y-119324286D01*
X168044762Y-119276667D01*
X168092381Y-119181429D01*
X168092381Y-118943333D01*
X168044762Y-118848095D01*
X167997143Y-118800476D01*
X167520952Y-119943333D02*
X167473333Y-119848095D01*
X167425714Y-119800476D01*
X167330476Y-119752857D01*
X167282857Y-119752857D01*
X167187619Y-119800476D01*
X167140000Y-119848095D01*
X167092381Y-119943333D01*
X167092381Y-120133810D01*
X167140000Y-120229048D01*
X167187619Y-120276667D01*
X167282857Y-120324286D01*
X167330476Y-120324286D01*
X167425714Y-120276667D01*
X167473333Y-120229048D01*
X167520952Y-120133810D01*
X167520952Y-119943333D01*
X167568571Y-119848095D01*
X167616190Y-119800476D01*
X167711429Y-119752857D01*
X167901905Y-119752857D01*
X167997143Y-119800476D01*
X168044762Y-119848095D01*
X168092381Y-119943333D01*
X168092381Y-120133810D01*
X168044762Y-120229048D01*
X167997143Y-120276667D01*
X167901905Y-120324286D01*
X167711429Y-120324286D01*
X167616190Y-120276667D01*
X167568571Y-120229048D01*
X167520952Y-120133810D01*
M02*
