G04 #@! TF.FileFunction,Legend,Bot*
%FSLAX46Y46*%
G04 Gerber Fmt 4.6, Leading zero omitted, Abs format (unit mm)*
G04 Created by KiCad (PCBNEW 4.0.7) date 02/01/19 22:39:00*
%MOMM*%
%LPD*%
G01*
G04 APERTURE LIST*
%ADD10C,0.100000*%
%ADD11C,0.120000*%
%ADD12C,0.150000*%
G04 APERTURE END LIST*
D10*
D11*
X164100000Y-113780000D02*
X167300000Y-113780000D01*
X167300000Y-112280000D02*
X164100000Y-112280000D01*
X167300000Y-112280000D02*
X167300000Y-113780000D01*
X171180000Y-112280000D02*
X167980000Y-112280000D01*
X167980000Y-113780000D02*
X171180000Y-113780000D01*
X167980000Y-113780000D02*
X167980000Y-112280000D01*
D12*
X169715000Y-115535000D02*
X169715000Y-115585000D01*
X165565000Y-115535000D02*
X165565000Y-115680000D01*
X165565000Y-120685000D02*
X165565000Y-120540000D01*
X169715000Y-120685000D02*
X169715000Y-120540000D01*
X169715000Y-115535000D02*
X165565000Y-115535000D01*
X169715000Y-120685000D02*
X165565000Y-120685000D01*
X169715000Y-115585000D02*
X171115000Y-115585000D01*
D10*
X165469047Y-114729390D02*
X165469047Y-114229390D01*
X165350000Y-114229390D01*
X165278571Y-114253200D01*
X165230952Y-114300819D01*
X165207143Y-114348438D01*
X165183333Y-114443676D01*
X165183333Y-114515105D01*
X165207143Y-114610343D01*
X165230952Y-114657962D01*
X165278571Y-114705581D01*
X165350000Y-114729390D01*
X165469047Y-114729390D01*
X164707143Y-114729390D02*
X164992857Y-114729390D01*
X164850000Y-114729390D02*
X164850000Y-114229390D01*
X164897619Y-114300819D01*
X164945238Y-114348438D01*
X164992857Y-114372248D01*
X170549047Y-114678590D02*
X170549047Y-114178590D01*
X170430000Y-114178590D01*
X170358571Y-114202400D01*
X170310952Y-114250019D01*
X170287143Y-114297638D01*
X170263333Y-114392876D01*
X170263333Y-114464305D01*
X170287143Y-114559543D01*
X170310952Y-114607162D01*
X170358571Y-114654781D01*
X170430000Y-114678590D01*
X170549047Y-114678590D01*
X170072857Y-114226210D02*
X170049047Y-114202400D01*
X170001428Y-114178590D01*
X169882381Y-114178590D01*
X169834762Y-114202400D01*
X169810952Y-114226210D01*
X169787143Y-114273829D01*
X169787143Y-114321448D01*
X169810952Y-114392876D01*
X170096666Y-114678590D01*
X169787143Y-114678590D01*
X168020952Y-114336190D02*
X168020952Y-114740952D01*
X167997143Y-114788571D01*
X167973333Y-114812381D01*
X167925714Y-114836190D01*
X167830476Y-114836190D01*
X167782857Y-114812381D01*
X167759048Y-114788571D01*
X167735238Y-114740952D01*
X167735238Y-114336190D01*
X167235238Y-114836190D02*
X167520952Y-114836190D01*
X167378095Y-114836190D02*
X167378095Y-114336190D01*
X167425714Y-114407619D01*
X167473333Y-114455238D01*
X167520952Y-114479048D01*
D12*
X168092381Y-116419524D02*
X168092381Y-115943333D01*
X167092381Y-115943333D01*
X168092381Y-116752857D02*
X167092381Y-116752857D01*
X167806667Y-117086191D01*
X167092381Y-117419524D01*
X168092381Y-117419524D01*
X167092381Y-117800476D02*
X167092381Y-118419524D01*
X167473333Y-118086190D01*
X167473333Y-118229048D01*
X167520952Y-118324286D01*
X167568571Y-118371905D01*
X167663810Y-118419524D01*
X167901905Y-118419524D01*
X167997143Y-118371905D01*
X168044762Y-118324286D01*
X168092381Y-118229048D01*
X168092381Y-117943333D01*
X168044762Y-117848095D01*
X167997143Y-117800476D01*
X167092381Y-119324286D02*
X167092381Y-118848095D01*
X167568571Y-118800476D01*
X167520952Y-118848095D01*
X167473333Y-118943333D01*
X167473333Y-119181429D01*
X167520952Y-119276667D01*
X167568571Y-119324286D01*
X167663810Y-119371905D01*
X167901905Y-119371905D01*
X167997143Y-119324286D01*
X168044762Y-119276667D01*
X168092381Y-119181429D01*
X168092381Y-118943333D01*
X168044762Y-118848095D01*
X167997143Y-118800476D01*
X167520952Y-119943333D02*
X167473333Y-119848095D01*
X167425714Y-119800476D01*
X167330476Y-119752857D01*
X167282857Y-119752857D01*
X167187619Y-119800476D01*
X167140000Y-119848095D01*
X167092381Y-119943333D01*
X167092381Y-120133810D01*
X167140000Y-120229048D01*
X167187619Y-120276667D01*
X167282857Y-120324286D01*
X167330476Y-120324286D01*
X167425714Y-120276667D01*
X167473333Y-120229048D01*
X167520952Y-120133810D01*
X167520952Y-119943333D01*
X167568571Y-119848095D01*
X167616190Y-119800476D01*
X167711429Y-119752857D01*
X167901905Y-119752857D01*
X167997143Y-119800476D01*
X168044762Y-119848095D01*
X168092381Y-119943333D01*
X168092381Y-120133810D01*
X168044762Y-120229048D01*
X167997143Y-120276667D01*
X167901905Y-120324286D01*
X167711429Y-120324286D01*
X167616190Y-120276667D01*
X167568571Y-120229048D01*
X167520952Y-120133810D01*
M02*
