G04 #@! TF.FileFunction,Legend,Bot*
%FSLAX46Y46*%
G04 Gerber Fmt 4.6, Leading zero omitted, Abs format (unit mm)*
G04 Created by KiCad (PCBNEW 4.0.7) date Friday, 10 August 2018 'AMt' 11:42:08 AM*
%MOMM*%
%LPD*%
G01*
G04 APERTURE LIST*
%ADD10C,0.100000*%
%ADD11C,0.120000*%
G04 APERTURE END LIST*
D10*
D11*
X166640000Y-114240000D02*
G75*
G03X168640000Y-114240000I1000000J0D01*
G01*
X168640000Y-114240000D02*
X170290000Y-114240000D01*
X170290000Y-114240000D02*
X170290000Y-124520000D01*
X170290000Y-124520000D02*
X164990000Y-124520000D01*
X164990000Y-124520000D02*
X164990000Y-114240000D01*
X164990000Y-114240000D02*
X166640000Y-114240000D01*
X172780000Y-114180000D02*
X172780000Y-124580000D01*
X172780000Y-124580000D02*
X162500000Y-124580000D01*
X162500000Y-124580000D02*
X162500000Y-114180000D01*
X162500000Y-114180000D02*
X172780000Y-114180000D01*
X164100000Y-113780000D02*
X167300000Y-113780000D01*
X167300000Y-112280000D02*
X164100000Y-112280000D01*
X167300000Y-112280000D02*
X167300000Y-113780000D01*
X171180000Y-112280000D02*
X167980000Y-112280000D01*
X167980000Y-113780000D02*
X171180000Y-113780000D01*
X167980000Y-113780000D02*
X167980000Y-112280000D01*
D10*
X168020952Y-120376190D02*
X168020952Y-120780952D01*
X167997143Y-120828571D01*
X167973333Y-120852381D01*
X167925714Y-120876190D01*
X167830476Y-120876190D01*
X167782857Y-120852381D01*
X167759048Y-120828571D01*
X167735238Y-120780952D01*
X167735238Y-120376190D01*
X167235238Y-120876190D02*
X167520952Y-120876190D01*
X167378095Y-120876190D02*
X167378095Y-120376190D01*
X167425714Y-120447619D01*
X167473333Y-120495238D01*
X167520952Y-120519048D01*
X162429047Y-113256190D02*
X162429047Y-112756190D01*
X162310000Y-112756190D01*
X162238571Y-112780000D01*
X162190952Y-112827619D01*
X162167143Y-112875238D01*
X162143333Y-112970476D01*
X162143333Y-113041905D01*
X162167143Y-113137143D01*
X162190952Y-113184762D01*
X162238571Y-113232381D01*
X162310000Y-113256190D01*
X162429047Y-113256190D01*
X161667143Y-113256190D02*
X161952857Y-113256190D01*
X161810000Y-113256190D02*
X161810000Y-112756190D01*
X161857619Y-112827619D01*
X161905238Y-112875238D01*
X161952857Y-112899048D01*
X173599047Y-113256190D02*
X173599047Y-112756190D01*
X173480000Y-112756190D01*
X173408571Y-112780000D01*
X173360952Y-112827619D01*
X173337143Y-112875238D01*
X173313333Y-112970476D01*
X173313333Y-113041905D01*
X173337143Y-113137143D01*
X173360952Y-113184762D01*
X173408571Y-113232381D01*
X173480000Y-113256190D01*
X173599047Y-113256190D01*
X173122857Y-112803810D02*
X173099047Y-112780000D01*
X173051428Y-112756190D01*
X172932381Y-112756190D01*
X172884762Y-112780000D01*
X172860952Y-112803810D01*
X172837143Y-112851429D01*
X172837143Y-112899048D01*
X172860952Y-112970476D01*
X173146666Y-113256190D01*
X172837143Y-113256190D01*
M02*
